<?xml version="1.0" encoding="iso-8859-1"?>
<!-- Uploaded to: SVG Repo, www.svgrepo.com, Generator: SVG Repo Mixer Tools -->
<svg height="800px" width="800px" version="1.1" id="Layer_1" xmlns="http://www.w3.org/2000/svg" xmlns:xlink="http://www.w3.org/1999/xlink" 
	 viewBox="0 0 512.001 512.001" xml:space="preserve">
<path style="fill:#AB91EA;" d="M512.001,256.006c0,141.395-114.606,255.998-255.996,255.994
	C114.606,512.004,0.001,397.402,0.001,256.006C-0.007,114.61,114.606,0,256.005,0C397.395,0,512.001,114.614,512.001,256.006z"/>
<path style="fill:#947ADB;" d="M511.486,271.558c-0.254-0.261-0.503-0.526-0.772-0.772
	c-0.517-0.499-160.236-160.278-160.763-160.763c-17.013-16.419-40.448-25.758-65.609-25.758h-55.504
	c-28.045,0-54.01,11.515-71.247,31.588c-16.457,19.178-23.34,43.953-19.388,69.737l9.682,64.672
	c-8.502-5.793-18.479-9.197-29.187-9.197c-22.175,0-34.438,22.16-34.438,37.479c0,11.439,5.772,23.268,14.355,30.905
	c0.509,0.503,23.286,23.339,23.575,23.609v23.515c0,20.208,5.846,35.858,16.097,45.466c7.417,7.747,15.333,15.004,22.749,22.749
	c0.499,0.521,0.998,1.031,1.52,1.52c0.496,0.517,84.407,84.442,84.93,84.928c0.185,0.193,0.378,0.375,0.565,0.565
	c2.649,0.081,5.286,0.201,7.954,0.201C392.168,512.004,503.442,405.703,511.486,271.558z"/>
<path style="fill:#F4F6F9;" d="M390.817,241.067c-9.375,0-17.947,2.501-25.316,7.007l9.471-62.461
	c3.952-25.812-2.939-50.582-19.403-69.759c-17.237-20.074-43.196-31.587-71.226-31.587h-55.504
	c-28.044,0-54.01,11.514-71.247,31.587c-16.458,19.178-23.341,43.954-19.389,69.738l9.681,64.671
	c-8.502-5.792-18.479-9.196-29.187-9.196c-22.174,0-34.438,22.159-34.438,37.479c0,15.123,10.069,30.96,23.421,36.837
	c0.956,0.422,2.02,0.846,3.15,1.298c8.014,3.194,11.36,5.279,11.36,9.881v30.013c0,31.573,14.139,52.201,37.333,55.653v8.038
	c0,4.127,3.34,7.467,7.467,7.467s7.467-3.34,7.467-7.467V412.8h164.267v7.467c0,4.127,3.34,7.467,7.467,7.467
	s7.467-3.34,7.467-7.467v-7.873c23.488-2.929,37.333-23.305,37.333-55.82v-30.013c0-4.63,3.332-6.708,11.295-9.902
	c1.108-0.445,2.151-0.861,3.091-1.276c12.957-5.71,22.364-21.204,22.364-36.837C427.741,263.627,413.012,241.067,390.817,241.067z
	 M168.931,125.581c14.386-16.763,36.225-26.381,59.908-26.381h55.504c23.668,0,45.5,9.618,59.893,26.381
	c13.584,15.815,19.258,36.334,15.977,57.787l-12.675,83.602c-5.613,9.851-8.814,21.997-8.814,35.58l-0.102,12.571
	c-15.056-5.833-43.668-14.32-82.621-14.32c-29.386,0-57.502,4.958-81.542,14.357V302.55c0-11.964-3.165-23.104-8.547-32.559
	c-0.007-0.058,0.018-0.11,0.01-0.166l-12.95-86.471C149.681,161.916,155.354,141.404,168.931,125.581z M399.355,301.718
	c-0.802,0.35-1.684,0.707-2.618,1.079c-7.226,2.895-20.679,8.276-20.679,23.763v30.013c0,18.834-4.929,41.293-28.401,41.293H166.598
	c-26.601,0-29.473-28.875-29.473-41.293v-30.013c0-15.466-13.504-20.854-20.759-23.749c-0.956-0.379-1.852-0.736-2.669-1.093
	c-7.999-3.522-14.503-13.913-14.503-23.173c0-7.649,6.883-22.546,19.505-22.546c22.896,0,40.826,20.446,40.826,46.55v13.861
	c0,5.163,2.421,9.997,6.33,12.607c3.412,2.283,7.598,2.669,11.441,1.087c22.866-9.398,50.086-14.371,78.706-14.371
	c39.098,0,66.828,9.005,79.881,14.372c3.872,1.582,8.035,1.196,11.447-1.087c3.908-2.61,6.33-7.444,6.33-12.607V302.55
	c0-23.13,12.761-46.55,37.158-46.55c12.702,0,21.991,14.831,21.991,22.546C412.808,288.214,406.902,298.394,399.355,301.718z"/>
</svg>